<svg xmlns="http://www.w3.org/2000/svg" xmlns:xlink="http://www.w3.org/1999/xlink" version="1.1" x="0px" y="0px" viewBox="0 0 100 125" enable-background="new 0 0 100 100" xml:space="preserve"><path d="M89.909,22.156h-17.17l-2.184-6.821c-1.064-3.473-2.905-3.979-6.634-3.979H36.078c-3.729,0-5.568,0.506-6.634,3.979  l-2.184,6.821h-17.17c-3.729,0-6.75,3.021-6.75,6.75v52.987c0,3.729,3.021,6.75,6.75,6.75h79.818c3.729,0,6.75-3.021,6.75-6.75  V28.906C96.659,25.178,93.638,22.156,89.909,22.156z M50,79.025c-12.395,0-22.443-10.049-22.443-22.444  c0-12.395,10.049-22.443,22.443-22.443c12.396,0,22.444,10.049,22.444,22.443C72.444,68.977,62.396,79.025,50,79.025z   M87.267,34.531c-1.942,0-3.517-1.573-3.517-3.516s1.574-3.516,3.517-3.516c1.941,0,3.516,1.573,3.516,3.516  S89.208,34.531,87.267,34.531z M50,41.415c-8.375,0-15.166,6.789-15.166,15.166S41.625,71.748,50,71.748  c8.377,0,15.167-6.79,15.167-15.167S58.377,41.415,50,41.415z"/><text x="0" y="115" fill="#000000" font-size="5px" font-weight="bold" font-family="'Helvetica Neue', Helvetica, Arial-Unicode, Arial, Sans-serif">Created by Kidiladon</text><text x="0" y="120" fill="#000000" font-size="5px" font-weight="bold" font-family="'Helvetica Neue', Helvetica, Arial-Unicode, Arial, Sans-serif">from the Noun Project</text></svg>